<svg width="75" height="75" viewBox="0 0 75 75" fill="none" xmlns="http://www.w3.org/2000/svg">
<g clip-path="url(#clip0_0_101)">
<path d="M37.5002 0C16.822 0 0 16.8228 0 37.5002C0 58.1775 16.822 75.0004 37.5002 75.0004C58.1775 75.0004 75.0004 58.1775 75.0004 37.5002C75.0004 16.8228 58.1775 0 37.5002 0ZM37.5002 72.272C18.3267 72.272 2.72758 56.6729 2.72758 37.5002C2.72758 18.3259 18.3267 2.72758 37.5002 2.72758C56.6736 2.72758 72.272 18.3259 72.272 37.5002C72.272 56.6729 56.6736 72.272 37.5002 72.272Z" fill="#FF5C00"/>
<path d="M37.5002 8.82983C21.9963 8.82983 9.35885 21.2081 8.87577 36.5966C8.8625 36.673 8.83051 36.7425 8.83051 36.8229C8.83051 36.8713 8.85236 36.9118 8.85782 36.9587C8.85392 37.1405 8.83051 37.3177 8.83051 37.5003C8.83051 53.3086 21.6911 66.17 37.5002 66.17C53.3085 66.17 66.1699 53.3086 66.1699 37.5003C66.1699 21.692 53.3085 8.82983 37.5002 8.82983ZM56.3802 55.237L53.0868 52.0497C52.546 51.5245 51.6828 51.5393 51.1584 52.0817C50.6347 52.6234 50.6488 53.4857 51.1904 54.0102L54.4128 57.1287C50.2032 60.7608 44.8237 63.0483 38.919 63.3706V59.2094C38.919 58.4562 38.3087 57.8452 37.5556 57.8452C36.8025 57.8452 36.1914 58.4562 36.1914 59.2094V63.376C30.2586 63.0779 24.8487 60.7952 20.6173 57.1553L23.2223 54.4644C23.7468 53.9235 23.7327 53.0596 23.1919 52.5359C22.6495 52.0123 21.7856 52.0263 21.2634 52.5672L18.649 55.2674C14.4144 50.7769 11.7672 44.791 11.5932 38.1871H16.4131C17.1662 38.1871 17.7765 37.5768 17.7765 36.8237C17.7765 36.0705 17.1662 35.4595 16.4131 35.4595H11.6611C12.0818 30.0948 14.1272 25.1844 17.3246 21.2277L20.8085 24.5999C21.0722 24.8559 21.4149 24.9831 21.7567 24.9831C22.1125 24.9831 22.4692 24.8441 22.7369 24.5679C23.2598 24.027 23.2465 23.1631 22.7049 22.6387L19.1423 19.19C23.5517 14.7689 29.55 11.9578 36.1914 11.6245V15.6804C36.1914 16.4343 36.8017 17.0446 37.5548 17.0446C38.3079 17.0446 38.919 16.4343 38.919 15.6804V11.63C44.9337 11.9578 50.4006 14.331 54.6445 18.0818L51.5377 21.2917C51.014 21.8325 51.0281 22.6956 51.5697 23.2201C51.8342 23.4761 52.1761 23.6033 52.5179 23.6033C52.8745 23.6033 53.2304 23.4644 53.4981 23.1881L56.5894 19.9946C60.3971 24.1425 62.8726 29.5158 63.3385 35.4595H58.6981C57.9442 35.4595 57.3339 36.0698 57.3339 36.8229C57.3339 37.576 57.9442 38.1871 58.6981 38.1871H63.4072C63.2339 44.7754 60.5976 50.7488 56.3802 55.237Z" fill="#FF5C00"/>
<path d="M42.53 30.4841C39.7213 30.4841 37.4354 32.77 37.4354 35.5795V40.5539C37.4354 43.3635 39.7213 45.6485 42.53 45.6485C45.3395 45.6485 47.6254 43.3635 47.6254 40.5539V35.5795C47.6254 32.77 45.3395 30.4841 42.53 30.4841ZM44.897 40.5539C44.897 41.8596 43.8349 42.921 42.53 42.921C41.2244 42.921 40.163 41.8596 40.163 40.5539V35.5795C40.163 34.2739 41.2244 33.2117 42.53 33.2117C43.8349 33.2117 44.897 34.2739 44.897 35.5795V40.5539Z" fill="#FF5C00"/>
<path d="M31.3364 35.4593H28.9693V34.4377C28.9693 31.9567 30.9883 29.9386 33.4685 29.9386C34.2224 29.9386 34.8327 29.3275 34.8327 28.5744C34.8327 27.8213 34.2224 27.2102 33.4685 27.2102C29.4836 27.2102 26.2418 30.4529 26.2418 34.4377V40.5539C26.2418 42.0632 26.9051 43.486 28.0617 44.4576C28.9865 45.2333 30.147 45.6477 31.345 45.6477C31.6446 45.6477 31.9474 45.622 32.2495 45.5689C34.3035 45.2076 35.9908 43.5211 36.3514 41.4662C36.6159 39.9608 36.2109 38.4343 35.2393 37.2792C34.2684 36.1219 32.8457 35.4593 31.3364 35.4593ZM33.6652 40.9941C33.5013 41.9243 32.7076 42.7188 31.7773 42.8827C31.0531 43.0068 30.3601 42.8249 29.8161 42.3684C29.2776 41.9165 28.9693 41.2555 28.9693 40.5539V38.1869H31.3364C32.038 38.1869 32.699 38.4951 33.1501 39.0329C33.609 39.5784 33.7908 40.2753 33.6652 40.9941Z" fill="#FF5C00"/>
</g>
<defs>
<clipPath id="clip0_0_101">
<rect width="75" height="75" fill="white"/>
</clipPath>
</defs>
</svg>
