<svg width="30" height="30" viewBox="0 0 30 30" fill="none" xmlns="http://www.w3.org/2000/svg">
<path d="M30 15C30 14.8178 29.9967 14.6362 29.9903 14.4556C29.7037 6.42352 23.1021 0 15 0C6.89795 0 0.29625 6.42352 0.00972656 14.4556C0.00328125 14.6362 0 14.8178 0 15C0 23.2843 7.7052 29.4557 15 29.4557C22.427 29.4557 30 23.2843 30 15Z" fill="#FF5876"/>
<path d="M15 28.9112C6.89807 28.9112 0.297539 22.4875 0.0108984 14.4556C0.00439453 14.6364 0 14.8176 0 15C0 23.2842 6.71572 30 15 30C23.2843 30 30 23.2842 30 15C30 14.8176 29.9956 14.6364 29.9892 14.4556C29.7025 22.4876 23.1019 28.9112 15 28.9112Z" fill="#E6485D"/>
<path d="M27.505 14.4557C27.22 7.79551 21.7303 2.4834 14.9999 2.4834C8.26957 2.4834 2.77993 7.79551 2.49493 14.4557C2.48719 14.6362 2.49487 26.7206 14.9999 26.7206C27.505 26.7206 27.5127 14.6362 27.505 14.4557Z" fill="#E4EEF9"/>
<path d="M15 26.4279C8.26972 26.4279 2.78095 21.1157 2.49583 14.4556C2.4881 14.6362 2.48335 14.8174 2.48335 14.9999C2.48335 21.9127 8.08726 27.5166 15 27.5166C21.9128 27.5166 27.5167 21.9127 27.5167 15C27.5167 14.8175 27.5119 14.6362 27.5042 14.4556C27.2191 21.1157 21.7303 26.4279 15 26.4279Z" fill="#D5E0F2"/>
<path d="M19.5466 10.6085C19.1898 10.2567 18.6153 10.2606 18.2636 10.6173L16.1346 12.7757L16.3485 13.8033L17.343 14.1346L19.5554 11.8915C19.9072 11.5348 19.9033 10.9604 19.5466 10.6085Z" fill="#405B6C"/>
<path d="M13.7157 12.8583L8.88747 8.55563C8.51335 8.22223 7.93989 8.25528 7.60655 8.6294C7.27321 9.00346 7.3062 9.57698 7.68032 9.91032L12.6037 14.2977L13.6296 13.9555L13.7157 12.8583Z" fill="#405B6C"/>
<path d="M21.424 20.8499C21.321 20.8499 21.2176 20.815 21.1325 20.7436L15.386 15.9167C15.1942 15.7556 15.1693 15.4694 15.3304 15.2777C15.4915 15.0858 15.7777 15.0609 15.9696 15.222L21.716 20.0489C21.9078 20.2101 21.9328 20.4962 21.7716 20.688C21.6819 20.7948 21.5534 20.8499 21.424 20.8499Z" fill="#86DCFF"/>
<path d="M12.6037 14.2978L13.4509 15.0529L14.539 14.6831L14.48 13.5394L13.7158 12.8584C13.184 13.1779 12.7816 13.6898 12.6037 14.2978Z" fill="#2D4456"/>
<path d="M16.1346 12.7759L15.4142 13.5062V14.9397H16.549L17.343 14.1347C17.1248 13.5443 16.6896 13.0596 16.1346 12.7759Z" fill="#2D4456"/>
<path d="M16.4522 14.4557C16.2317 13.868 15.6647 13.4497 15 13.4497C14.3354 13.4497 13.7684 13.868 13.5479 14.4557C13.4844 14.6251 13.5437 16.0062 15 16.0062C16.4564 16.0062 16.5157 14.6251 16.4522 14.4557Z" fill="#FF5876"/>
<path d="M14.9999 15.4616C14.3353 15.4616 13.7685 15.0433 13.548 14.4556C13.4845 14.625 13.4495 14.8083 13.4495 14.9999C13.4495 15.8562 14.1437 16.5503 14.9999 16.5503C15.8562 16.5503 16.5503 15.8561 16.5503 14.9999C16.5503 14.8083 16.5153 14.625 16.4518 14.4556C16.2314 15.0432 15.6646 15.4616 14.9999 15.4616Z" fill="#E6485D"/>
<path d="M15.4545 5.48295V4.07512C15.4545 3.8241 15.251 3.62061 15 3.62061C14.7489 3.62061 14.5454 3.8241 14.5454 4.07512V5.48295C14.5454 5.73396 14.7489 5.93746 15 5.93746C15.251 5.93746 15.4545 5.73396 15.4545 5.48295Z" fill="#405B6C"/>
<path d="M14.5454 24.5175V25.9253C14.5454 26.1763 14.7489 26.3798 15 26.3798C15.251 26.3798 15.4545 26.1763 15.4545 25.9253V24.5175C15.4545 24.2665 15.251 24.063 15 24.063C14.7489 24.063 14.5454 24.2665 14.5454 24.5175Z" fill="#405B6C"/>
<path d="M25.925 15.4544C26.1761 15.4544 26.3795 15.2509 26.3795 14.9999C26.3795 14.7489 26.176 14.5454 25.925 14.5454H24.5172C24.2662 14.5454 24.0627 14.7489 24.0627 14.9999C24.0627 15.2509 24.2662 15.4544 24.5172 15.4544H25.925Z" fill="#405B6C"/>
<path d="M4.0749 14.5454C3.82383 14.5454 3.62039 14.7489 3.62039 14.9999C3.62039 15.2509 3.82383 15.4544 4.0749 15.4544H5.48274C5.73381 15.4544 5.93725 15.2509 5.93725 14.9999C5.93725 14.7489 5.73375 14.5454 5.48274 14.5454H4.0749Z" fill="#405B6C"/>
</svg>
