<svg width="65" height="65" viewBox="0 0 65 65" fill="none" xmlns="http://www.w3.org/2000/svg">
<path d="M23.8852 27.803H23.5679V23.0427C23.5679 22.1948 22.5394 21.7726 21.9428 22.3696L20.6733 23.6389C20.3016 24.0109 20.3016 24.6135 20.6733 24.9852C20.9413 25.253 21.329 25.3275 21.6639 25.2101V27.803H21.3465C20.8208 27.803 20.3945 28.229 20.3945 28.755C20.3945 29.2809 20.8207 29.707 21.3465 29.707H23.8852C24.411 29.707 24.8374 29.2809 24.8374 28.755C24.8374 28.229 24.411 27.803 23.8852 27.803Z" fill="#FF5C00"/>
<path d="M28.7801 22.0908C27.2053 22.0908 25.9242 23.372 25.9242 24.9469V26.8509C25.9242 28.4257 27.2053 29.707 28.7801 29.707C30.3551 29.707 31.6363 28.4257 31.6363 26.8509V24.9469C31.6363 23.3719 30.3551 22.0908 28.7801 22.0908ZM29.7323 26.8511C29.7323 27.3761 29.3052 27.8031 28.7801 27.8031C28.2553 27.8031 27.8282 27.3761 27.8282 26.8511V24.947C27.8282 24.4219 28.2553 23.995 28.7801 23.995C29.3052 23.995 29.7323 24.4219 29.7323 24.947V26.8511Z" fill="#FF5C00"/>
<path d="M35.582 22.0908C34.0072 22.0908 32.7261 23.372 32.7261 24.9469V26.8509C32.7261 28.4257 34.0072 29.707 35.582 29.707C37.157 29.707 38.4382 28.4257 38.4382 26.8509V24.9469C38.4382 23.3719 37.1572 22.0908 35.582 22.0908ZM36.5342 26.8511C36.5342 27.3761 36.1071 27.8031 35.582 27.8031C35.0572 27.8031 34.6301 27.3761 34.6301 26.8511V24.947C34.6301 24.4219 35.0572 23.995 35.582 23.995C36.1071 23.995 36.5342 24.4219 36.5342 24.947V26.8511Z" fill="#FF5C00"/>
<path d="M40.48 23.9936C41.0057 23.9936 41.4322 23.5675 41.4322 23.0416C41.4322 22.5157 41.0057 22.0896 40.48 22.0896C39.9542 22.0896 39.528 22.5157 39.528 23.0416C39.528 23.5673 39.9542 23.9936 40.48 23.9936Z" fill="#FF5C00"/>
<path d="M44.1156 22.2096C43.6558 21.9543 43.0764 22.1198 42.8211 22.5795L39.6479 28.2914C39.3926 28.7509 39.5582 29.3306 40.0178 29.5859C40.475 29.8397 41.0558 29.6775 41.3125 29.2158L44.4855 23.5042C44.7407 23.0445 44.5753 22.465 44.1156 22.2096Z" fill="#FF5C00"/>
<path d="M43.6535 27.8018C43.1277 27.8018 42.7014 28.2279 42.7014 28.7537C42.7014 29.2796 43.1275 29.7057 43.6535 29.7057C44.1792 29.7057 44.6055 29.2796 44.6055 28.7537C44.6055 28.2279 44.1792 27.8018 43.6535 27.8018Z" fill="#FF5C00"/>
<path d="M0.952148 35.3566C1.47799 35.3566 1.9043 34.9304 1.9043 34.4044C1.9043 33.8794 2.33137 33.4523 2.85645 33.4523H62.1436C62.6686 33.4523 63.0957 33.8794 63.0957 34.4044C63.0957 34.9304 63.5219 35.3566 64.0479 35.3566C64.5738 35.3566 65 34.9304 65 34.4044C65 32.8295 63.7185 31.548 62.1436 31.548H61.2292C61.0742 31.1274 60.818 30.7457 60.4764 30.4416L57.2562 27.5758L59.1345 23.696C59.8538 22.2105 59.1124 20.432 57.5592 19.8922L53.4874 18.4769L53.738 14.1735C53.834 12.5283 52.4709 11.1666 50.8268 11.2623L46.5234 11.5129L45.1081 7.44126C44.5674 5.88494 42.7875 5.14798 41.3043 5.86565L37.4244 7.74404L34.5587 4.52388C33.4615 3.29129 31.5366 3.2937 30.4416 4.52388L27.5759 7.74404L23.6958 5.86565C22.216 5.14912 20.434 5.8819 19.892 7.44101L18.4768 11.5129L14.1734 11.2623C12.5322 11.1661 11.1663 12.5257 11.2621 14.1735L11.5127 18.4769L7.44123 19.8922C5.88453 20.433 5.14795 22.2133 5.86561 23.696L7.74389 27.5758L4.52372 30.4416C4.18209 30.7458 3.9259 31.1274 3.77089 31.548H2.85645C1.28134 31.548 0 32.8295 0 34.4044C0 34.9304 0.426309 35.3566 0.952148 35.3566ZM9.54738 28.5199C9.86553 28.2369 9.95693 27.777 9.77146 27.3937L7.57948 22.8663C7.35731 22.4074 7.58367 21.8589 8.06622 21.691L12.8176 20.0393C13.2198 19.8995 13.4803 19.5097 13.4555 19.0846L13.1631 14.0628C13.1336 13.5553 13.5505 13.1343 14.0626 13.1633L19.0844 13.4557C19.5104 13.4804 19.8993 13.2199 20.0392 12.8179L21.6908 8.06638C21.8576 7.58624 22.4051 7.35607 22.866 7.57964L27.3937 9.77161C27.7767 9.95684 28.2368 9.86556 28.5199 9.54754L31.864 5.78973C32.2031 5.40887 32.7964 5.40811 33.1362 5.78973L36.4804 9.54754C36.7635 9.86556 37.2235 9.95696 37.6064 9.77161L42.1342 7.57951C42.5942 7.35709 43.1418 7.58459 43.3094 8.06638L44.9611 12.8179C45.101 13.2199 45.491 13.4805 45.9158 13.4557L50.9378 13.1633C51.4484 13.1343 51.8668 13.5538 51.8371 14.0628L51.5447 19.0846C51.52 19.5097 51.7804 19.8995 52.1826 20.0393L56.9342 21.691C57.4154 21.8584 57.6437 22.4062 57.4208 22.8662L55.2288 27.3937C55.0433 27.7771 55.1349 28.2369 55.4529 28.5199L58.8555 31.5481H15.3589C15.8477 22.5946 23.2748 15.3324 32.5 15.3324H32.5063C40.5564 15.3324 47.6163 21.0467 49.2921 28.9191C49.3848 29.3556 49.7771 29.673 50.2227 29.673C50.2899 29.673 50.356 29.6667 50.422 29.6514C50.9349 29.5424 51.2637 29.0357 51.1545 28.5228C51.1545 28.5216 51.1545 28.5216 51.1545 28.5202C49.3149 19.8848 41.6334 13.428 32.5001 13.428C22.3194 13.428 13.9459 21.4547 13.4513 31.548H6.14491L9.54738 28.5199Z" fill="#FF5C00"/>
<path d="M64.0479 41.0696C63.5219 41.0696 63.0957 41.4958 63.0957 42.0217C63.0957 42.5468 62.6686 42.9739 62.1436 42.9739H2.85645C2.33137 42.9739 1.9043 42.5468 1.9043 42.0217C1.9043 41.4958 1.47799 41.0696 0.952148 41.0696C0.426309 41.0696 0 41.4958 0 42.0217C0 43.5967 1.28134 44.8782 2.85645 44.8782H10.1762L11.5296 46.2316L11.2621 50.8268C11.1667 52.4681 12.5247 53.8338 14.1734 53.7381L18.4768 53.4875L19.892 57.5591C20.4331 59.1158 22.2131 59.8527 23.6958 59.1348L27.5757 57.2564L30.4416 60.4765C31.5372 61.7076 33.4636 61.7067 34.5587 60.4765L37.4244 57.2564L41.3042 59.1348C42.7871 59.8528 44.5673 59.1155 45.108 57.5594L46.5232 53.4876L50.8266 53.7382C52.4801 53.8343 53.833 52.4635 53.7379 50.8269L53.4704 46.2317L54.8239 44.8783H62.1436C63.7185 44.8783 65 43.5968 65 42.0219C65 41.4958 64.5738 41.0696 64.0479 41.0696ZM51.5445 45.9158L51.8369 50.9375C51.8666 51.4449 51.4495 51.8666 50.9374 51.8371L45.9155 51.5447C45.4907 51.5197 45.1007 51.7805 44.9608 52.1825L43.3092 56.9341C43.1415 57.4161 42.5934 57.6434 42.1338 57.4208L37.6062 55.2288C37.2228 55.0433 36.7632 55.1348 36.4801 55.4529L33.1359 59.2107C32.7968 59.5915 32.2034 59.5922 31.8638 59.2107L28.5196 55.4529C28.2365 55.1348 27.7767 55.0436 27.3934 55.2288L22.8659 57.4209C22.4042 57.6442 21.8574 57.4139 21.6907 56.934L20.039 52.1825C19.8993 51.7805 19.51 51.5188 19.0844 51.5447L14.0626 51.8371C13.5489 51.8653 13.1336 51.4444 13.1631 50.9375L13.4555 45.9158C13.4714 45.6445 13.3704 45.3793 13.1782 45.1872L12.8692 44.8782H44.382C41.1957 47.9437 36.9684 49.668 32.4999 49.668C28.5427 49.668 24.8217 48.3529 21.7393 45.8671C21.3354 45.5391 20.7364 45.5957 20.4 46.0093C20.0712 46.4181 20.1346 47.0185 20.5434 47.3487C20.5447 47.3487 20.5447 47.3499 20.5447 47.3499C23.8734 50.0364 28.0523 51.5724 32.4973 51.5724L32.4999 51.5661L32.5024 51.5724C38.12 51.5724 43.3748 49.1128 46.9975 44.8783H52.1305L51.8215 45.1873C51.6296 45.3793 51.5287 45.6445 51.5445 45.9158Z" fill="#FF5C00"/>
<path d="M5.56764 36.3091H6.26627C6.79223 36.3091 7.21841 35.883 7.21841 35.3569C7.21841 34.8311 6.79236 34.405 6.26627 34.405H5.56764C3.46784 34.405 1.75943 36.1133 1.75943 38.213C1.75943 40.3129 3.46784 42.0212 5.56764 42.0212C6.58479 42.0212 7.54088 41.6251 8.26019 40.9058C8.97951 40.1865 9.37573 39.2304 9.37573 38.213C9.37573 37.6873 8.9498 37.2611 8.42371 37.2611H6.77433C6.24849 37.2611 5.82218 37.6871 5.82218 38.213C5.82218 38.7391 6.24837 39.1651 6.77433 39.1651H7.21753C7.13526 39.3076 7.03357 39.4399 6.91411 39.5594C6.5542 39.9191 6.07609 40.1172 5.56764 40.1172C4.51761 40.1172 3.6636 39.2629 3.6636 38.213C3.6636 37.1633 4.51761 36.3091 5.56764 36.3091Z" fill="#FF5C00"/>
<path d="M11.0868 34.405C10.561 34.405 10.1347 34.8311 10.1347 35.3569V38.8033C10.1347 40.5779 11.5866 42.0212 13.3717 42.0212C15.1565 42.0212 16.6084 40.5779 16.6084 38.8033V35.3569C16.6084 34.8312 16.1823 34.405 15.6566 34.405C15.1307 34.405 14.7044 34.8311 14.7044 35.3569V38.8033C14.7044 39.5277 14.1065 40.1172 13.3715 40.1172C12.6366 40.1172 12.0386 39.5277 12.0386 38.8033V35.3569C12.0389 34.8311 11.6125 34.405 11.0868 34.405Z" fill="#FF5C00"/>
<path d="M20.1647 34.405C19.7679 34.405 19.4126 34.6511 19.2733 35.0225L17.1312 40.7348C16.9465 41.2272 17.1962 41.7759 17.6883 41.9604C18.1808 42.1446 18.7293 41.8956 18.9142 41.4033L19.0395 41.069H21.29L21.4154 41.4033C21.6009 41.8983 22.152 42.1442 22.641 41.9604C23.1331 41.7759 23.3825 41.2272 23.1979 40.7348L21.056 35.0225C20.9166 34.6511 20.5614 34.405 20.1647 34.405ZM19.7532 39.1651L20.1645 38.0683L20.5757 39.1651H19.7532Z" fill="#FF5C00"/>
<path d="M29.9872 37.2611C29.9872 35.6864 28.7131 34.405 27.1471 34.405H25.2904C24.7647 34.405 24.3384 34.8311 24.3384 35.3569V41.0692C24.3384 41.5952 24.7646 42.0212 25.2904 42.0212C25.8161 42.0212 26.2425 41.5952 26.2425 41.0692V40.1172H26.7502L28.3591 41.7395C28.5451 41.9273 28.7901 42.0212 29.0351 42.0212C29.2774 42.0212 29.5197 41.9292 29.7054 41.7452C30.0787 41.375 30.0812 40.7721 29.7112 40.3989L28.8582 39.5388C29.5435 39.0167 29.9872 38.1901 29.9872 37.2611ZM27.1471 38.2129H26.2425V36.3089H27.1471C27.663 36.3089 28.083 36.7359 28.083 37.261C28.083 37.7859 27.6632 38.2129 27.1471 38.2129Z" fill="#FF5C00"/>
<path d="M34.0322 34.405C33.6354 34.405 33.2801 34.6511 33.1408 35.0225L30.9988 40.7348C30.8139 41.2272 31.0636 41.7759 31.5558 41.9604C32.0483 42.1446 32.5968 41.8956 32.7817 41.4033L32.907 41.069H35.1576L35.283 41.4033C35.4262 41.7856 35.7891 42.0212 36.1744 42.0212C36.2855 42.0212 36.3985 42.0018 36.5085 41.9604C37.0006 41.7759 37.2501 41.2272 37.0655 40.7348L34.9235 35.0225C34.7841 34.6511 34.4289 34.405 34.0322 34.405ZM33.6207 39.1651L34.032 38.0683L34.4433 39.1651H33.6207Z" fill="#FF5C00"/>
<path d="M42.2678 35.3568V38.1609L39.7986 34.794C39.5551 34.4623 39.126 34.3242 38.7347 34.4524C38.3433 34.5804 38.0789 34.9456 38.0789 35.3571V41.0692C38.0789 41.5952 38.5051 42.0212 39.0309 42.0212C39.5566 42.0212 39.9831 41.5952 39.9831 41.0692V38.2652L42.4522 41.6321C42.992 42.3683 44.1721 41.9934 44.1721 41.0689V35.3567C44.172 34.831 43.7458 34.4048 43.22 34.4048C42.694 34.4049 42.2678 34.831 42.2678 35.3568Z" fill="#FF5C00"/>
<path d="M47.8245 42.0212C48.3503 42.0212 48.7765 41.5951 48.7765 41.0692V36.3091H49.9826C50.5083 36.3091 50.9346 35.883 50.9346 35.3569C50.9346 34.8311 50.5084 34.405 49.9826 34.405H45.6667C45.1408 34.405 44.7145 34.8311 44.7145 35.3569C44.7145 35.883 45.1407 36.3091 45.6667 36.3091H46.8726V41.0692C46.8726 41.5951 47.2988 42.0212 47.8245 42.0212Z" fill="#FF5C00"/>
<path d="M55.3652 36.3091C55.8911 36.3091 56.3172 35.883 56.3172 35.3569C56.3172 34.8311 55.8912 34.405 55.3652 34.405H52.4457C51.92 34.405 51.4937 34.8311 51.4937 35.3569V41.0692C51.4937 41.5951 51.9198 42.0212 52.4457 42.0212H55.3652C55.8911 42.0212 56.3172 41.5951 56.3172 41.0692C56.3172 40.5432 55.8911 40.1172 55.3652 40.1172H53.3977V39.1651H54.6036C55.1295 39.1651 55.5555 38.7391 55.5555 38.213C55.5555 37.6871 55.1295 37.2611 54.6036 37.2611H53.3977V36.3091H55.3652Z" fill="#FF5C00"/>
<path d="M61.2729 36.3091C61.7987 36.3091 62.2249 35.883 62.2249 35.3569C62.2249 34.8311 61.7989 34.405 61.2729 34.405H58.3534C57.8276 34.405 57.4013 34.8311 57.4013 35.3569V41.0692C57.4013 41.5951 57.8275 42.0212 58.3534 42.0212H61.2729C61.7987 42.0212 62.2249 41.5951 62.2249 41.0692C62.2249 40.5432 61.7987 40.1172 61.2729 40.1172H59.3054V39.1651H60.5113C61.0371 39.1651 61.4632 38.7391 61.4632 38.213C61.4632 37.6871 61.0371 37.2611 60.5113 37.2611H59.3054V36.3091H61.2729Z" fill="#FF5C00"/>
</svg>
