<svg width="53" height="53" viewBox="0 0 53 53" fill="none" xmlns="http://www.w3.org/2000/svg">
<g clip-path="url(#clip0_1_493)">
<path d="M48.1227 6.65283H4.87735C2.18801 6.65283 0 8.84074 0 11.5335C0 14.2228 2.18801 16.4108 4.87735 16.4108H48.1227C50.812 16.4108 53 14.2228 53 11.5335C53 8.84074 50.812 6.65283 48.1227 6.65283Z" fill="white"/>
<path d="M48.1227 21.6211H4.87735C2.18801 21.6211 0 23.809 0 26.5018C0 29.1911 2.18801 31.3791 4.87735 31.3791H48.1227C50.812 31.3791 53 29.1911 53 26.5018C53 23.809 50.812 21.6211 48.1227 21.6211Z" fill="white"/>
<path d="M48.1227 36.5894H4.87735C2.18801 36.5894 0 38.7774 0 41.47C0 44.1593 2.18801 46.3474 4.87735 46.3474H48.1227C50.812 46.3474 53 44.1593 53 41.47C53 38.7774 50.812 36.5894 48.1227 36.5894Z" fill="white"/>
</g>
<defs>
<clipPath id="clip0_1_493">
<rect width="53" height="53" fill="white"/>
</clipPath>
</defs>
</svg>
