<svg width="60" height="60" viewBox="0 0 60 60" fill="none" xmlns="http://www.w3.org/2000/svg">
<path d="M30 1.875C25.0298 1.87604 20.1485 3.19389 15.8531 5.69442C11.5577 8.19496 8.00152 11.7889 5.54645 16.1104C3.09137 20.432 1.8251 25.3268 1.8765 30.2968C1.9279 35.2668 3.29516 40.1344 5.83909 44.4042C5.71101 44.5594 5.63634 44.7518 5.62614 44.9528C5.61595 45.1538 5.67077 45.3527 5.78249 45.5201L6.84421 47.1127L2.33015 49.8211C2.16787 49.9184 2.03886 50.0626 1.96006 50.2347C1.88127 50.4067 1.85638 50.5986 1.88868 50.785C1.92097 50.9715 2.00894 51.1438 2.14101 51.2793C2.27307 51.4149 2.44306 51.5072 2.62862 51.5443L6.52007 52.3226L6.25956 57.1368C6.25035 57.3067 6.28761 57.476 6.36732 57.6265C6.44704 57.7769 6.56621 57.9028 6.71204 57.9906C6.85788 58.0784 7.02487 58.1249 7.19511 58.125C7.36535 58.1251 7.53241 58.0788 7.67835 57.9912L14.8385 53.6904C19.3654 56.5858 24.6267 58.1245 30.0004 58.1245C35.3741 58.1245 40.6354 56.5858 45.1623 53.6904L52.3224 57.9912C52.4684 58.0788 52.6354 58.1251 52.8057 58.125C52.9759 58.1249 53.1429 58.0784 53.2888 57.9906C53.4346 57.9028 53.5538 57.7769 53.6335 57.6265C53.7132 57.476 53.7504 57.3067 53.7412 57.1368L53.4807 52.3226L57.3722 51.5443C57.5577 51.5072 57.7277 51.4149 57.8598 51.2793C57.9919 51.1438 58.0798 50.9715 58.1121 50.785C58.1444 50.5986 58.1195 50.4067 58.0407 50.2347C57.9619 50.0626 57.8329 49.9184 57.6707 49.8211L53.1562 47.1127L54.218 45.5201C54.3297 45.3526 54.3845 45.1536 54.3743 44.9526C54.3641 44.7515 54.2893 44.5591 54.1611 44.4039C56.7059 40.1342 58.0738 35.2664 58.1256 30.2961C58.1774 25.3259 56.9112 20.4306 54.456 16.1088C52.0007 11.787 48.4441 8.19303 44.1482 5.69274C39.8523 3.19244 34.9705 1.87516 30 1.875ZM10.5901 44.1067C16.6476 41.1992 23.2809 39.6896 30 39.6896C36.7191 39.6896 43.3524 41.1992 49.4099 44.1067L52.0583 45.3782L49.3533 49.4358C43.276 46.6703 36.6767 45.2393 29.9998 45.2393C23.3229 45.2393 16.7235 46.6703 10.6462 49.4358L7.94132 45.3782L10.5901 44.1067ZM30 37.8146C24.704 37.8221 19.4472 38.7239 14.4516 40.4822C12.3558 37.389 11.2402 33.7363 11.25 30C11.25 19.6611 19.6611 11.25 30 11.25C40.3389 11.25 48.75 19.6611 48.75 30C48.7589 33.7362 47.6432 37.3886 45.5478 40.482C40.5524 38.7238 35.2958 37.8221 30 37.8146ZM36.4887 47.5927C32.3004 49.1358 27.6992 49.1358 23.511 47.5927C27.8134 46.9548 32.1863 46.9548 36.4887 47.5927ZM8.22726 55.4743L8.43608 51.6132C8.4483 51.3881 8.37898 51.1661 8.24082 50.988C8.10267 50.8098 7.90493 50.6874 7.68386 50.6432L5.37421 50.1813L7.88554 48.6745L9.53249 51.1451C9.65752 51.3326 9.84592 51.4688 10.0632 51.5287C10.2804 51.5887 10.512 51.5683 10.7155 51.4714C11.343 51.1726 11.9779 50.8889 12.6201 50.6203L13.6748 52.2023L8.22726 55.4743ZM15.8533 52.1146C15.8326 52.0678 15.8081 52.0227 15.78 51.9799L14.4047 49.9174C16.3197 49.2097 18.2804 48.6325 20.2734 48.1895C23.2661 49.7885 26.6069 50.6251 30 50.6251C33.3931 50.6251 36.7339 49.7885 39.7266 48.1895C41.7196 48.6322 43.6804 49.2093 45.5954 49.9168L44.2201 51.9793C44.192 52.0221 44.1675 52.0671 44.1469 52.1139C39.9227 54.8143 35.0138 56.2494 30.0002 56.2494C24.9865 56.2494 20.0777 54.8143 15.8535 52.1139L15.8533 52.1146ZM54.6258 50.181L52.3161 50.6428C52.095 50.687 51.8973 50.8094 51.7592 50.9876C51.621 51.1658 51.5517 51.3878 51.5639 51.6129L51.7727 55.474L46.3253 52.2023L47.3799 50.6203C48.0216 50.8895 48.6565 51.1732 49.2846 51.4714C49.4882 51.5685 49.7199 51.5889 49.9373 51.529C50.1546 51.469 50.3431 51.3327 50.4682 51.1451L52.1151 48.6745L54.6258 50.181ZM52.5085 43.5139L50.2213 42.416C49.2792 41.9639 48.3217 41.5442 47.3488 41.1568C49.4962 37.8327 50.6342 33.9574 50.625 30C50.625 18.6273 41.3727 9.375 30 9.375C18.6273 9.375 9.37499 18.6273 9.37499 30C9.36469 33.9577 10.5024 37.8334 12.6503 41.1575C11.6787 41.545 10.7217 41.9646 9.77917 42.4164L7.49249 43.5139C5.10216 39.5307 3.8117 34.9844 3.75286 30.3394C3.69402 25.6943 4.8689 21.1169 7.15756 17.0743C9.44622 13.0318 12.7667 9.66902 16.7799 7.32934C20.7931 4.98966 25.3553 3.75689 30.0008 3.75689C34.6462 3.75689 39.2084 4.98966 43.2216 7.32934C47.2348 9.66902 50.5553 13.0318 52.8439 17.0743C55.1326 21.1169 56.3075 25.6943 56.2486 30.3394C56.1898 34.9844 54.8993 39.5307 52.509 43.5139H52.5085Z" fill="#FF5C00"/>
<path d="M38.9063 22.5H33.75C33.5014 22.4997 33.2632 22.4009 33.0874 22.2251C32.9116 22.0493 32.8128 21.8111 32.8125 21.5625V18.75C32.8116 18.0043 32.515 17.2895 31.9878 16.7622C31.4605 16.235 30.7457 15.9384 30 15.9375H28.125C27.8764 15.9375 27.6379 16.0363 27.4621 16.2121C27.2863 16.3879 27.1875 16.6264 27.1875 16.875V18.9414C27.1895 19.6496 27.0509 20.3511 26.7799 21.0054C26.5088 21.6596 26.1107 22.2537 25.6085 22.753L24.9241 23.4375H19.6875C19.4389 23.4375 19.2004 23.5363 19.0246 23.7121C18.8488 23.8879 18.75 24.1264 18.75 24.375V34.6875C18.75 34.9361 18.8488 35.1746 19.0246 35.3504C19.2004 35.5262 19.4389 35.625 19.6875 35.625H36.0938C36.4734 35.6251 36.8474 35.533 37.1835 35.3565C37.5197 35.1801 37.8079 34.9247 38.0235 34.6122C38.2391 34.2997 38.3756 33.9395 38.4211 33.5626C38.4667 33.1857 38.42 32.8034 38.2852 32.4485C38.7418 32.1597 39.0845 31.722 39.2554 31.2094C39.4262 30.6969 39.4147 30.141 39.2227 29.636C39.6793 29.3472 40.022 28.9095 40.1929 28.3969C40.3637 27.8844 40.3522 27.3285 40.1602 26.8235C40.589 26.5518 40.9179 26.1482 41.0977 25.6735C41.2774 25.1987 41.2981 24.6785 41.1567 24.1909C41.0153 23.7034 40.7194 23.2749 40.3136 22.97C39.9077 22.6651 39.4139 22.5001 38.9063 22.5ZM20.625 25.3125H24.375V33.75H20.625V25.3125ZM38.9063 25.3125H37.9688C37.7201 25.3125 37.4817 25.4113 37.3058 25.5871C37.13 25.7629 37.0313 26.0014 37.0313 26.25C37.0313 26.4986 37.13 26.7371 37.3058 26.9129C37.4817 27.0887 37.7201 27.1875 37.9688 27.1875C38.0931 27.1875 38.2123 27.2369 38.3002 27.3248C38.3881 27.4127 38.4375 27.5319 38.4375 27.6562C38.4375 27.7806 38.3881 27.8998 38.3002 27.9877C38.2123 28.0756 38.0931 28.125 37.9688 28.125H37.0313C36.7826 28.125 36.5442 28.2238 36.3683 28.3996C36.1925 28.5754 36.0938 28.8139 36.0938 29.0625C36.0938 29.3111 36.1925 29.5496 36.3683 29.7254C36.5442 29.9012 36.7826 30 37.0313 30C37.1556 30 37.2748 30.0494 37.3627 30.1373C37.4506 30.2252 37.5 30.3444 37.5 30.4688C37.5 30.5931 37.4506 30.7123 37.3627 30.8002C37.2748 30.8881 37.1556 30.9375 37.0313 30.9375H36.0938C35.8451 30.9375 35.6067 31.0363 35.4308 31.2121C35.255 31.3879 35.1563 31.6264 35.1563 31.875C35.1563 32.1236 35.255 32.3621 35.4308 32.5379C35.6067 32.7137 35.8451 32.8125 36.0938 32.8125C36.2181 32.8125 36.3373 32.8619 36.4252 32.9498C36.5131 33.0377 36.5625 33.1569 36.5625 33.2812C36.5625 33.4056 36.5131 33.5248 36.4252 33.6127C36.3373 33.7006 36.2181 33.75 36.0938 33.75H26.25V24.7632L26.9345 24.079C27.6113 23.4058 28.1478 22.6052 28.5131 21.7233C28.8783 20.8414 29.0651 19.8959 29.0625 18.9414V17.8125H30C30.2486 17.8128 30.4869 17.9116 30.6626 18.0874C30.8384 18.2632 30.9372 18.5014 30.9375 18.75V21.5625C30.9384 22.3082 31.235 23.023 31.7622 23.5503C32.2895 24.0775 33.0043 24.3741 33.75 24.375H38.9063C39.0306 24.375 39.1498 24.4244 39.2377 24.5123C39.3256 24.6002 39.375 24.7194 39.375 24.8438C39.375 24.9681 39.3256 25.0873 39.2377 25.1752C39.1498 25.2631 39.0306 25.3125 38.9063 25.3125Z" fill="#FF5C00"/>
<path d="M28.0558 42.2109L28.923 42.841L28.5917 43.8605C28.5687 43.9311 28.5687 44.0072 28.5916 44.0779C28.6146 44.1485 28.6593 44.2101 28.7194 44.2538C28.7794 44.2974 28.8518 44.3209 28.9261 44.3209C29.0004 44.3209 29.0727 44.2974 29.1328 44.2537L30 43.6236L30.8672 44.2537C30.9272 44.2974 30.9996 44.3209 31.0739 44.3209C31.1481 44.3209 31.2205 44.2974 31.2806 44.2538C31.3407 44.2101 31.3854 44.1485 31.4083 44.0779C31.4312 44.0072 31.4312 43.9311 31.4082 43.8605L31.0769 42.841L31.9441 42.2109C32.0042 42.1672 32.0489 42.1057 32.0718 42.0351C32.0948 41.9645 32.0948 41.8884 32.0718 41.8178C32.0489 41.7472 32.0042 41.6857 31.9441 41.6421C31.8841 41.5984 31.8118 41.5749 31.7375 41.5749H30.6656L30.3343 40.5554C30.3114 40.4848 30.2667 40.4233 30.2066 40.3796C30.1465 40.336 30.0742 40.3125 30 40.3125C29.9257 40.3125 29.8534 40.336 29.7934 40.3796C29.7333 40.4233 29.6886 40.4848 29.6656 40.5554L29.3343 41.5749H28.2624C28.1882 41.5749 28.1159 41.5984 28.0558 41.6421C27.9958 41.6857 27.9511 41.7472 27.9281 41.8178C27.9052 41.8884 27.9052 41.9645 27.9281 42.0351C27.9511 42.1057 27.9958 42.1672 28.0558 42.2109Z" fill="#FF5C00"/>
<path d="M22.6456 42.8885L23.5127 43.5187L23.1815 44.5382C23.1585 44.6088 23.1584 44.6849 23.1814 44.7555C23.2043 44.8262 23.249 44.8878 23.3091 44.9314C23.3692 44.9751 23.4415 44.9986 23.5158 44.9986C23.5901 44.9986 23.6624 44.975 23.7225 44.9314L24.5897 44.3012L25.4569 44.9314C25.5169 44.975 25.5893 44.9986 25.6636 44.9986C25.7379 44.9986 25.8102 44.9751 25.8703 44.9314C25.9304 44.8878 25.9751 44.8262 25.998 44.7555C26.021 44.6849 26.0209 44.6088 25.9979 44.5382L25.6666 43.5187L26.5338 42.8885C26.5939 42.8449 26.6386 42.7834 26.6615 42.7128C26.6845 42.6422 26.6845 42.5661 26.6615 42.4955C26.6386 42.4249 26.5939 42.3634 26.5339 42.3197C26.4738 42.2761 26.4015 42.2526 26.3272 42.2526H25.2552L24.924 41.233C24.9011 41.1624 24.8564 41.1008 24.7963 41.0572C24.7363 41.0135 24.6639 40.99 24.5896 40.99C24.5154 40.99 24.443 41.0135 24.3829 41.0572C24.3229 41.1008 24.2782 41.1624 24.2552 41.233L23.9241 42.2526H22.8522C22.7779 42.2526 22.7056 42.2761 22.6455 42.3197C22.5855 42.3634 22.5408 42.4249 22.5178 42.4955C22.4949 42.5661 22.4949 42.6422 22.5178 42.7128C22.5408 42.7834 22.5855 42.8449 22.6456 42.8885Z" fill="#FF5C00"/>
<path d="M33.466 42.8885L34.3332 43.5187L34.0019 44.5382C33.9789 44.6088 33.9789 44.6849 34.0018 44.7555C34.0247 44.8262 34.0695 44.8878 34.1295 44.9314C34.1896 44.9751 34.262 44.9986 34.3363 44.9986C34.4105 44.9986 34.4829 44.975 34.543 44.9314L35.4102 44.3012L36.2773 44.9314C36.3374 44.975 36.4098 44.9986 36.484 44.9986C36.5583 44.9986 36.6307 44.9751 36.6908 44.9314C36.7509 44.8878 36.7956 44.8262 36.8185 44.7555C36.8414 44.6849 36.8414 44.6088 36.8184 44.5382L36.4871 43.5187L37.3543 42.8885C37.4144 42.8449 37.4591 42.7834 37.482 42.7127C37.5049 42.6421 37.5049 42.5661 37.482 42.4955C37.459 42.4248 37.4143 42.3633 37.3542 42.3197C37.2942 42.276 37.2218 42.2525 37.1476 42.2526H36.0757L35.7445 41.233C35.7216 41.1624 35.6769 41.1008 35.6168 41.0572C35.5567 41.0135 35.4844 40.99 35.4101 40.99C35.3358 40.99 35.2635 41.0135 35.2034 41.0572C35.1433 41.1008 35.0986 41.1624 35.0757 41.233L34.7445 42.2526H33.6726C33.5984 42.2526 33.5261 42.2761 33.466 42.3197C33.4059 42.3634 33.3612 42.4249 33.3383 42.4955C33.3154 42.5661 33.3154 42.6422 33.3383 42.7128C33.3613 42.7834 33.406 42.8449 33.466 42.8885Z" fill="#FF5C00"/>
</svg>
