<svg width="20" height="20" viewBox="0 0 20 20" fill="none" xmlns="http://www.w3.org/2000/svg">
<g clip-path="url(#clip0_0_69)">
<path d="M15.2053 13.2302C14.5519 12.5851 13.7362 12.5851 13.087 13.2302C12.5917 13.7213 12.0965 14.2124 11.6095 14.7118C11.4764 14.8491 11.364 14.8782 11.2017 14.7867C10.8812 14.6119 10.5399 14.4704 10.232 14.2789C8.79614 13.3758 7.59338 12.2147 6.52796 10.9079C5.99941 10.2586 5.52912 9.56361 5.20034 8.78119C5.13375 8.62304 5.14624 8.51899 5.27525 8.38998C5.77051 7.91137 6.25328 7.42028 6.74021 6.92918C7.41858 6.24665 7.41858 5.44758 6.73605 4.76088C6.349 4.36967 5.96195 3.98678 5.5749 3.59557C5.17537 3.19604 4.78 2.79234 4.3763 2.39697C3.7229 1.76021 2.90718 1.76021 2.25794 2.40113C1.75852 2.89223 1.27991 3.39581 0.772173 3.87858C0.301888 4.32389 0.0646646 4.86909 0.0147229 5.50584C-0.0643515 6.54213 0.189519 7.52016 0.547435 8.47322C1.27991 10.4459 2.39528 12.198 3.74787 13.8045C5.5749 15.977 7.75569 17.6958 10.3069 18.936C11.4555 19.4937 12.6458 19.9224 13.9401 19.9931C14.8308 20.043 15.6049 19.8183 16.225 19.1233C16.6495 18.6488 17.1281 18.216 17.5776 17.7624C18.2435 17.0882 18.2476 16.2724 17.5859 15.6066C16.7951 14.8117 16.0002 14.0209 15.2053 13.2302Z" fill="white"/>
<path d="M14.4105 9.91321L15.9462 9.65102C15.7048 8.24016 15.0389 6.96249 14.0276 5.94701C12.958 4.87742 11.6054 4.20321 10.1155 3.99512L9.89905 5.53915C11.0519 5.70146 12.1006 6.22169 12.9288 7.04989C13.7113 7.83231 14.2232 8.82282 14.4105 9.91321Z" fill="white"/>
<path d="M16.8118 3.23789C15.0388 1.46496 12.7956 0.34543 10.3193 0L10.1029 1.54403C12.2421 1.84368 14.1815 2.81338 15.7131 4.34077C17.1655 5.79324 18.1186 7.6286 18.464 9.64708L19.9997 9.38488C19.596 7.04595 18.4931 4.92342 16.8118 3.23789Z" fill="white"/>
</g>
<defs>
<clipPath id="clip0_0_69">
<rect width="20" height="20" fill="white"/>
</clipPath>
</defs>
</svg>
