<svg width="30" height="30" viewBox="0 0 30 30" fill="none" xmlns="http://www.w3.org/2000/svg">
<g clip-path="url(#clip0_0_40)">
<path d="M14.9998 29.9996C23.284 29.9996 29.9996 23.284 29.9996 14.9998C29.9996 6.71565 23.284 0 14.9998 0C6.71565 0 0 6.71565 0 14.9998C0 23.284 6.71565 29.9996 14.9998 29.9996Z" fill="#41B4E6"/>
<path d="M30 15.0001C30 14.6346 29.9863 14.2724 29.9606 13.9134L23.7439 7.69678L6.2562 14.5756L12.9471 21.2666L13.0348 21.5825L13.1485 21.4679L13.1489 21.4684L13.0348 21.5825L20.4362 28.9839C26.0331 26.8065 30 21.3669 30 15.0001Z" fill="#0091C8"/>
<path d="M13.5433 17.1855L20.322 22.3035L23.7438 7.69678L6.25613 14.5756L11.5774 16.3382L21.2889 9.82397L13.5433 17.1855Z" fill="white"/>
<path d="M11.5774 16.3384L13.0348 21.5828L13.5432 17.1857L21.2889 9.82422L11.5774 16.3384Z" fill="#D2D2D7"/>
<path d="M15.7464 18.8489L13.0348 21.5827L13.5432 17.1855L15.7464 18.8489Z" fill="#B9B9BE"/>
</g>
<defs>
<clipPath id="clip0_0_40">
<rect width="30" height="30" fill="white"/>
</clipPath>
</defs>
</svg>
