<svg width="60" height="60" viewBox="0 0 60 60" fill="none" xmlns="http://www.w3.org/2000/svg">
<g clip-path="url(#clip0_0_272)">
<path d="M59.3172 42.841C58.8373 41.6389 57.4739 41.0533 56.2718 41.5332C55.0697 42.0131 54.4841 43.3764 54.964 44.5786C55.5741 46.107 55.374 47.8522 54.4288 49.2472C53.4831 50.6429 51.9689 51.4434 50.2746 51.4434H9.73423C7.88606 51.4434 6.24485 50.4791 5.34379 48.8635C4.44133 47.2453 4.48375 45.3383 5.45723 43.762L25.7274 10.9432C26.6504 9.44883 28.2492 8.55668 30.0044 8.55668C31.7597 8.55668 33.3583 9.44883 34.2814 10.9432L49.2729 35.2156C49.9531 36.3168 51.3973 36.6584 52.4983 35.9779C53.5994 35.2979 53.9408 33.8538 53.2606 32.7525L38.269 8.48016C36.4858 5.59312 33.3963 3.86952 30.0043 3.86952C26.6123 3.86952 23.5228 5.59324 21.7396 8.48016L1.46945 41.299C-0.409777 44.3419 -0.491574 48.0233 1.25042 51.1467C2.99101 54.2674 6.16246 56.1304 9.73423 56.1304H50.2746C53.5486 56.1304 56.477 54.5797 58.309 51.8762C60.1273 49.1928 60.5041 45.8151 59.3172 42.841Z" fill="#FF5C00"/>
<path d="M30.0058 46.8734C31.3001 46.8734 32.3493 45.8242 32.3493 44.5299C32.3493 43.2355 31.3001 42.1864 30.0058 42.1864H30.0046C28.7103 42.1864 27.6617 43.2355 27.6617 44.5299C27.6617 45.8242 28.7115 46.8734 30.0058 46.8734Z" fill="#FF5C00"/>
<path d="M32.3483 36.3276V19.1025C32.3483 17.8082 31.2991 16.759 30.0048 16.759C28.7104 16.759 27.6613 17.8082 27.6613 19.1025V36.3276C27.6613 37.6219 28.7104 38.6711 30.0048 38.6711C31.2991 38.6711 32.3483 37.6219 32.3483 36.3276Z" fill="#FF5C00"/>
</g>
<defs>
<clipPath id="clip0_0_272">
<rect width="60" height="60" fill="white"/>
</clipPath>
</defs>
</svg>
