<svg width="60" height="60" viewBox="0 0 60 60" fill="none" xmlns="http://www.w3.org/2000/svg">
<g clip-path="url(#clip0_0_268)">
<path d="M58.5272 7.17215C57.5684 7.01454 56.665 7.66376 56.5077 8.62176L55.4725 14.9241C52.0382 13.3309 48.0663 13.7773 44.9275 16.2884C42.3949 18.3145 38.9919 18.3143 36.4597 16.2884C34.5778 14.783 32.3747 13.9872 30.0883 13.9872C27.8018 13.9872 25.5985 14.7829 23.7169 16.2884C21.1842 18.3145 17.7814 18.3143 15.2492 16.2884C12.0427 13.7233 8.00957 13.3072 4.54058 14.9981L3.49316 8.62176C3.33578 7.66387 2.4325 7.01477 1.47367 7.17215C0.515429 7.32954 -0.133555 8.23364 0.0238273 9.19165L6.00531 45.6053C6.00695 45.6152 6.00859 45.625 6.01047 45.6348C6.77078 49.8166 10.4075 52.8515 14.6577 52.8515H45.343C49.5933 52.8515 53.23 49.8163 53.9903 45.6348C53.992 45.625 53.9937 45.6152 53.9953 45.6053L59.9768 9.19165C60.1342 8.23364 59.4851 7.32954 58.5272 7.17215ZM50.5287 45.0197C50.0671 47.5217 47.8883 49.3361 45.3428 49.3361H14.6576C12.1121 49.3361 9.93343 47.5217 9.47171 45.0197L5.14867 18.7018C7.61968 17.0009 10.6363 17.1006 13.0525 19.0336C16.904 22.1147 22.0719 22.1063 25.9126 19.0336C28.449 17.0045 31.7269 17.0045 34.2632 19.0336C38.1146 22.1147 43.2825 22.1063 47.1233 19.0336C49.4769 17.1508 52.4291 17.0118 54.8687 18.5971L50.5287 45.0197Z" fill="#FF5C00"/>
</g>
<defs>
<clipPath id="clip0_0_268">
<rect width="60" height="60" fill="white"/>
</clipPath>
</defs>
</svg>
