<svg width="60" height="60" viewBox="0 0 60 60" fill="none" xmlns="http://www.w3.org/2000/svg">
<g clip-path="url(#clip0_0_245)">
<path d="M35.1318 13.1454C33.6815 11.472 32.3428 9.91018 31.3388 8.68304C31.283 8.57148 31.1714 8.5157 31.1157 8.45992C30.5021 7.95791 29.6096 8.06947 29.1076 8.68304C28.1036 9.91018 26.7649 11.472 25.3146 13.1454C24.9799 13.5358 24.6453 13.8705 24.3664 14.261C22.8603 12.1971 21.1312 10.1891 19.6251 8.45992C18.7884 7.51167 18.0075 6.6192 17.5055 5.94985C17.4497 5.83829 17.3382 5.78252 17.2824 5.72674C16.6688 5.22472 15.7763 5.33628 15.2743 5.94985C14.7165 6.6192 13.9356 7.51167 13.0989 8.5157C9.30594 12.8107 4.11847 18.8349 4.11847 24.0224C4.11847 27.4249 5.51295 30.437 7.68835 32.6681C8.58081 33.5606 9.58484 34.2857 10.7004 34.8993C10.5331 35.5129 10.3658 36.0707 10.2542 36.6843C10.0311 37.6883 9.91952 38.6923 9.91952 39.6963C9.91952 45.3301 12.2065 50.406 15.8879 54.0316C19.5693 57.7131 24.6453 60 30.2232 60C35.8011 60 40.9328 57.7131 44.5585 54.0316C48.2399 50.3502 50.5269 45.2743 50.5269 39.6963C50.5269 30.9948 41.6022 20.6756 35.1318 13.1454ZM9.64062 30.7717C7.96724 29.0983 6.90743 26.6998 6.90743 24.1339C6.96321 19.8947 11.7602 14.3168 15.2186 10.3006C15.609 9.8544 15.9995 9.40817 16.3341 9.01772C16.6688 9.46395 17.0593 9.8544 17.4497 10.3006C19.2347 12.3645 21.3543 14.8188 23.0277 17.3288C23.8086 18.556 24.5337 19.7273 24.9799 20.8987C24.9799 20.8987 24.9799 20.8987 24.9799 20.9545C25.0915 21.2334 25.2031 21.4565 25.2588 21.7354C25.2588 21.7912 25.2588 21.847 25.3146 21.9027C25.3704 22.1259 25.4262 22.349 25.4819 22.5721C25.4819 22.6836 25.5377 22.7952 25.5377 22.9068C25.5935 23.0741 25.5935 23.2414 25.6493 23.353C25.7051 23.6319 25.7051 23.855 25.7051 24.1339C25.7051 25.7515 25.3146 27.2576 24.5895 28.5963C24.1432 29.3772 23.5854 30.1023 22.9719 30.7717C22.3583 31.3852 21.5774 31.943 20.7965 32.3892C19.4578 33.1144 17.9517 33.5048 16.3341 33.5048C15.9995 33.5048 15.7206 33.5048 15.3859 33.4491C15.3301 33.4491 15.3301 33.4491 15.2743 33.4491C14.9954 33.3933 14.7165 33.3933 14.4376 33.3375C14.3819 33.3375 14.3261 33.3375 14.2703 33.2817C14.0472 33.2259 13.7683 33.1702 13.5452 33.1144C13.4894 33.1144 13.4336 33.0586 13.3778 33.0586C11.9834 32.6124 10.7004 31.8315 9.64062 30.7717ZM42.4389 52.0236C39.2594 55.203 34.9087 57.1553 30.1116 57.1553C25.2588 57.1553 20.908 55.203 17.7844 52.0236C14.6608 48.8441 12.7085 44.4934 12.7085 39.6963C12.7085 38.9154 12.82 38.0787 12.9874 37.2421C13.0989 36.7958 13.2105 36.3496 13.3221 35.9033C13.4336 35.9033 13.5452 35.9591 13.601 35.9591C13.7125 36.0149 13.8798 36.0149 13.9914 36.0707H14.0472C14.1587 36.0707 14.3261 36.1265 14.4376 36.1265C14.6608 36.1822 14.8839 36.1822 15.107 36.238C15.4974 36.2938 15.8879 36.2938 16.2784 36.2938C19.6809 36.2938 22.693 34.8993 24.9242 32.7239C25.203 32.445 25.4819 32.1661 25.7051 31.8315C27.4342 29.7118 28.494 27.0344 28.494 24.0781C28.494 23.7435 28.494 23.4088 28.4383 23.0741C28.4383 22.9068 28.3825 22.7952 28.3825 22.6279C28.3267 22.4605 28.3267 22.2374 28.2709 22.0701C28.2151 21.847 28.1594 21.6796 28.1036 21.4565C28.0478 21.2892 28.0478 21.1776 27.992 21.0103C27.9362 20.7872 27.8247 20.564 27.7131 20.2851C27.6573 20.1736 27.6573 20.062 27.6016 19.9505C27.6573 19.9505 27.6573 19.8947 27.6016 19.8389C27.1553 18.7791 26.5975 17.7193 25.9282 16.6595C26.4302 16.0459 26.9322 15.4881 27.3784 14.9861C28.3825 13.8705 29.2749 12.7549 30.1116 11.7509C30.9483 12.7549 31.8966 13.8147 32.8448 14.9861C39.0363 22.1259 47.5706 31.9988 47.5706 39.6963C47.5706 44.5491 45.6183 48.8999 42.4389 52.0236Z" fill="#FF5C00"/>
<path d="M55.8817 11.9739L55.8757 11.964C55.7537 8.68443 51.6534 3.75731 49.2382 0.99079L48.9651 0.539117C48.9093 0.483338 48.8535 0.371779 48.742 0.316C48.1284 -0.186014 47.2359 -0.0744554 46.7339 0.539117C46.455 0.929572 45.953 1.48737 45.451 2.10094C43.1082 4.83413 39.8173 8.62712 39.8173 11.9739C39.8173 14.2051 40.7097 16.2131 42.16 17.6634C43.6103 19.1136 45.6183 20.0061 47.8495 20.0061C50.0807 20.0061 52.0887 19.1136 53.539 17.6634C54.9601 16.2423 55.8432 14.2851 55.8784 12.1077L55.8817 12.1133C55.8817 12.0958 55.8798 12.0773 55.8796 12.0598C55.8799 12.0311 55.8817 12.0027 55.8817 11.9739ZM51.5309 15.6553C50.5827 16.6036 49.2997 17.1614 47.8495 17.1614C46.3992 17.1614 45.1163 16.6036 44.168 15.6553C43.2198 14.7071 42.662 13.4241 42.662 11.9739C42.662 9.63115 45.5068 6.34017 47.5706 3.94166L47.8495 3.60698L48.1284 3.94166C50.1922 6.34017 53.037 9.63115 53.037 11.9739C53.037 13.4241 52.4792 14.7071 51.5309 15.6553Z" fill="#FF5C00"/>
</g>
<defs>
<clipPath id="clip0_0_245">
<rect width="60" height="60" fill="white"/>
</clipPath>
</defs>
</svg>
